<?xml version="1.0" encoding="UTF-8" standalone="no"?>
<!DOCTYPE svg PUBLIC "-//W3C//DTD SVG 1.1//EN"
 "http://www.w3.org/Graphics/SVG/1.1/DTD/svg11.dtd">
<!-- Generated by graphviz version 2.47.0 (20210316.0004)
 -->
<!-- Title: dependencies Pages: 1 -->
<svg width="3742pt" height="284pt"
 viewBox="0.00 0.00 3742.00 284.00" xmlns="http://www.w3.org/2000/svg" xmlns:xlink="http://www.w3.org/1999/xlink">
<g id="graph0" class="graph" transform="scale(1 1) rotate(0) translate(4 280)">
<title>dependencies</title>
<polygon fill="white" stroke="transparent" points="-4,4 -4,-280 3738,-280 3738,4 -4,4"/>
<text text-anchor="start" x="1846.01" y="-42.4" font-family="sans-serif" font-weight="bold" font-size="14.00">Legend</text>
<polygon fill="#ffffb3" stroke="transparent" points="1633,-10 1633,-30 1653,-30 1653,-10 1633,-10"/>
<text text-anchor="start" x="1656.63" y="-15.4" font-family="sans-serif" font-size="14.00"> &#160;Declarations</text>
<polygon fill="#8dd3c7" stroke="transparent" points="1746,-10 1746,-30 1766,-30 1766,-10 1746,-10"/>
<text text-anchor="start" x="1769.73" y="-15.4" font-family="sans-serif" font-size="14.00"> &#160;Module</text>
<polygon fill="#80b1d3" stroke="transparent" points="1832,-10 1832,-30 1852,-30 1852,-10 1832,-10"/>
<text text-anchor="start" x="1855.78" y="-15.4" font-family="sans-serif" font-size="14.00"> &#160;Bootstrap</text>
<polygon fill="#fdb462" stroke="transparent" points="1929,-10 1929,-30 1949,-30 1949,-10 1929,-10"/>
<text text-anchor="start" x="1952.67" y="-15.4" font-family="sans-serif" font-size="14.00"> &#160;Providers</text>
<polygon fill="#fb8072" stroke="transparent" points="2025,-10 2025,-30 2045,-30 2045,-10 2025,-10"/>
<text text-anchor="start" x="2048.73" y="-15.4" font-family="sans-serif" font-size="14.00"> &#160;Exports</text>
<g id="clust1" class="cluster">
<title>cluster_AppModule</title>
<polygon fill="none" stroke="black" stroke-dasharray="1,5" points="8,-70 8,-268 3726,-268 3726,-70 8,-70"/>
</g>
<g id="clust27" class="cluster">
<title>cluster_AppModule_providers</title>
<polygon fill="none" stroke="black" points="3502,-78 3502,-130 3718,-130 3718,-78 3502,-78"/>
</g>
<g id="clust24" class="cluster">
<title>cluster_AppModule_imports</title>
<polygon fill="none" stroke="black" points="3350,-78 3350,-130 3494,-130 3494,-78 3350,-78"/>
</g>
<g id="clust26" class="cluster">
<title>cluster_AppModule_bootstrap</title>
<polygon fill="none" stroke="black" points="1609,-208 1609,-260 1733,-260 1733,-208 1609,-208"/>
</g>
<g id="clust2" class="cluster">
<title>cluster_AppModule_declarations</title>
<polygon fill="none" stroke="black" points="16,-78 16,-130 3342,-130 3342,-78 16,-78"/>
</g>
<!-- AppComponent -->
<g id="node1" class="node">
<title>AppComponent</title>
<polygon fill="#ffffb3" stroke="black" points="3333.94,-122 3228.06,-122 3228.06,-86 3333.94,-86 3333.94,-122"/>
<text text-anchor="middle" x="3281" y="-99.8" font-family="Times,serif" font-size="14.00">AppComponent</text>
</g>
<!-- AppModule -->
<g id="node22" class="node">
<title>AppModule</title>
<polygon fill="#8dd3c7" stroke="black" points="1712.66,-187 1709.66,-191 1688.66,-191 1685.66,-187 1629.34,-187 1629.34,-151 1712.66,-151 1712.66,-187"/>
<text text-anchor="middle" x="1671" y="-164.8" font-family="Times,serif" font-size="14.00">AppModule</text>
</g>
<!-- AppComponent&#45;&gt;AppModule -->
<g id="edge1" class="edge">
<title>AppComponent&#45;&gt;AppModule</title>
<path fill="none" stroke="black" d="M3281,-122.29C3281,-144.21 3281,-178 3281,-178 3281,-178 1722.83,-178 1722.83,-178"/>
<polygon fill="black" stroke="black" points="1722.83,-174.5 1712.83,-178 1722.83,-181.5 1722.83,-174.5"/>
</g>
<!-- BuscadorEstablecimientoComponent -->
<g id="node2" class="node">
<title>BuscadorEstablecimientoComponent</title>
<polygon fill="#ffffb3" stroke="black" points="3210.4,-122 2985.6,-122 2985.6,-86 3210.4,-86 3210.4,-122"/>
<text text-anchor="middle" x="3098" y="-99.8" font-family="Times,serif" font-size="14.00">BuscadorEstablecimientoComponent</text>
</g>
<!-- BuscadorEstablecimientoComponent&#45;&gt;AppModule -->
<g id="edge2" class="edge">
<title>BuscadorEstablecimientoComponent&#45;&gt;AppModule</title>
<path fill="none" stroke="black" d="M3098,-122.28C3098,-143.32 3098,-175 3098,-175 3098,-175 1722.93,-175 1722.93,-175"/>
<polygon fill="black" stroke="black" points="1722.93,-171.5 1712.93,-175 1722.93,-178.5 1722.93,-171.5"/>
</g>
<!-- BuscadorPeluqueroComponent -->
<g id="node3" class="node">
<title>BuscadorPeluqueroComponent</title>
<polygon fill="#ffffb3" stroke="black" points="2967.47,-122 2776.53,-122 2776.53,-86 2967.47,-86 2967.47,-122"/>
<text text-anchor="middle" x="2872" y="-99.8" font-family="Times,serif" font-size="14.00">BuscadorPeluqueroComponent</text>
</g>
<!-- BuscadorPeluqueroComponent&#45;&gt;AppModule -->
<g id="edge3" class="edge">
<title>BuscadorPeluqueroComponent&#45;&gt;AppModule</title>
<path fill="none" stroke="black" d="M2872,-122.22C2872,-142.37 2872,-172 2872,-172 2872,-172 1722.69,-172 1722.69,-172"/>
<polygon fill="black" stroke="black" points="1722.69,-168.5 1712.69,-172 1722.69,-175.5 1722.69,-168.5"/>
</g>
<!-- CitaComponent -->
<g id="node4" class="node">
<title>CitaComponent</title>
<polygon fill="#ffffb3" stroke="black" points="2758.17,-122 2653.83,-122 2653.83,-86 2758.17,-86 2758.17,-122"/>
<text text-anchor="middle" x="2706" y="-99.8" font-family="Times,serif" font-size="14.00">CitaComponent</text>
</g>
<!-- CitaComponent&#45;&gt;AppModule -->
<g id="edge4" class="edge">
<title>CitaComponent&#45;&gt;AppModule</title>
<path fill="none" stroke="black" d="M2706,-122.11C2706,-141.34 2706,-169 2706,-169 2706,-169 1722.86,-169 1722.86,-169"/>
<polygon fill="black" stroke="black" points="1722.86,-165.5 1712.86,-169 1722.86,-172.5 1722.86,-165.5"/>
</g>
<!-- DialogCitaComponent -->
<g id="node5" class="node">
<title>DialogCitaComponent</title>
<polygon fill="#ffffb3" stroke="black" points="2635.27,-122 2492.73,-122 2492.73,-86 2635.27,-86 2635.27,-122"/>
<text text-anchor="middle" x="2564" y="-99.8" font-family="Times,serif" font-size="14.00">DialogCitaComponent</text>
</g>
<!-- DialogCitaComponent&#45;&gt;AppModule -->
<g id="edge5" class="edge">
<title>DialogCitaComponent&#45;&gt;AppModule</title>
<path fill="none" stroke="black" d="M2564,-122.27C2564,-140.56 2564,-166 2564,-166 2564,-166 1722.87,-166 1722.87,-166"/>
<polygon fill="black" stroke="black" points="1722.87,-162.5 1712.87,-166 1722.87,-169.5 1722.87,-162.5"/>
</g>
<!-- DialogIniciarComponent -->
<g id="node6" class="node">
<title>DialogIniciarComponent</title>
<polygon fill="#ffffb3" stroke="black" points="2474.97,-122 2319.03,-122 2319.03,-86 2474.97,-86 2474.97,-122"/>
<text text-anchor="middle" x="2397" y="-99.8" font-family="Times,serif" font-size="14.00">DialogIniciarComponent</text>
</g>
<!-- DialogIniciarComponent&#45;&gt;AppModule -->
<g id="edge6" class="edge">
<title>DialogIniciarComponent&#45;&gt;AppModule</title>
<path fill="none" stroke="black" d="M2397,-122.02C2397,-139.37 2397,-163 2397,-163 2397,-163 1722.91,-163 1722.91,-163"/>
<polygon fill="black" stroke="black" points="1722.91,-159.5 1712.91,-163 1722.91,-166.5 1722.91,-159.5"/>
</g>
<!-- DialogRegistrarComponent -->
<g id="node7" class="node">
<title>DialogRegistrarComponent</title>
<polygon fill="#ffffb3" stroke="black" points="2301.25,-122 2130.75,-122 2130.75,-86 2301.25,-86 2301.25,-122"/>
<text text-anchor="middle" x="2216" y="-99.8" font-family="Times,serif" font-size="14.00">DialogRegistrarComponent</text>
</g>
<!-- DialogRegistrarComponent&#45;&gt;AppModule -->
<g id="edge7" class="edge">
<title>DialogRegistrarComponent&#45;&gt;AppModule</title>
<path fill="none" stroke="black" d="M2216,-122.03C2216,-138.4 2216,-160 2216,-160 2216,-160 1722.86,-160 1722.86,-160"/>
<polygon fill="black" stroke="black" points="1722.86,-156.5 1712.86,-160 1722.86,-163.5 1722.86,-156.5"/>
</g>
<!-- DialogResenaComponent -->
<g id="node8" class="node">
<title>DialogResenaComponent</title>
<polygon fill="#ffffb3" stroke="black" points="2112.86,-122 1953.14,-122 1953.14,-86 2112.86,-86 2112.86,-122"/>
<text text-anchor="middle" x="2033" y="-99.8" font-family="Times,serif" font-size="14.00">DialogResenaComponent</text>
</g>
<!-- DialogResenaComponent&#45;&gt;AppModule -->
<g id="edge8" class="edge">
<title>DialogResenaComponent&#45;&gt;AppModule</title>
<path fill="none" stroke="black" d="M2033,-122.24C2033,-137.57 2033,-157 2033,-157 2033,-157 1722.88,-157 1722.88,-157"/>
<polygon fill="black" stroke="black" points="1722.88,-153.5 1712.88,-157 1722.88,-160.5 1722.88,-153.5"/>
</g>
<!-- DialogUpdateComponent -->
<g id="node9" class="node">
<title>DialogUpdateComponent</title>
<polygon fill="#ffffb3" stroke="black" points="1934.86,-122 1775.14,-122 1775.14,-86 1934.86,-86 1934.86,-122"/>
<text text-anchor="middle" x="1855" y="-99.8" font-family="Times,serif" font-size="14.00">DialogUpdateComponent</text>
</g>
<!-- DialogUpdateComponent&#45;&gt;AppModule -->
<g id="edge9" class="edge">
<title>DialogUpdateComponent&#45;&gt;AppModule</title>
<path fill="none" stroke="black" d="M1855,-122.05C1855,-136.37 1855,-154 1855,-154 1855,-154 1722.75,-154 1722.75,-154"/>
<polygon fill="black" stroke="black" points="1722.75,-150.5 1712.75,-154 1722.75,-157.5 1722.75,-150.5"/>
</g>
<!-- EstablecimientoComponent -->
<g id="node10" class="node">
<title>EstablecimientoComponent</title>
<polygon fill="#ffffb3" stroke="black" points="1756.53,-122 1585.47,-122 1585.47,-86 1756.53,-86 1756.53,-122"/>
<text text-anchor="middle" x="1671" y="-99.8" font-family="Times,serif" font-size="14.00">EstablecimientoComponent</text>
</g>
<!-- EstablecimientoComponent&#45;&gt;AppModule -->
<g id="edge10" class="edge">
<title>EstablecimientoComponent&#45;&gt;AppModule</title>
<path fill="none" stroke="black" d="M1671,-122.11C1671,-122.11 1671,-140.99 1671,-140.99"/>
<polygon fill="black" stroke="black" points="1667.5,-140.99 1671,-150.99 1674.5,-140.99 1667.5,-140.99"/>
</g>
<!-- FavoritoComponent -->
<g id="node11" class="node">
<title>FavoritoComponent</title>
<polygon fill="#ffffb3" stroke="black" points="1567.27,-122 1438.73,-122 1438.73,-86 1567.27,-86 1567.27,-122"/>
<text text-anchor="middle" x="1503" y="-99.8" font-family="Times,serif" font-size="14.00">FavoritoComponent</text>
</g>
<!-- FavoritoComponent&#45;&gt;AppModule -->
<g id="edge11" class="edge">
<title>FavoritoComponent&#45;&gt;AppModule</title>
<path fill="none" stroke="black" d="M1503,-122.05C1503,-136.37 1503,-154 1503,-154 1503,-154 1619.04,-154 1619.04,-154"/>
<polygon fill="black" stroke="black" points="1619.04,-157.5 1629.04,-154 1619.04,-150.5 1619.04,-157.5"/>
</g>
<!-- HoraPipe -->
<g id="node12" class="node">
<title>HoraPipe</title>
<polygon fill="#ffffb3" stroke="black" points="1420.37,-122 1351.63,-122 1351.63,-86 1420.37,-86 1420.37,-122"/>
<text text-anchor="middle" x="1386" y="-99.8" font-family="Times,serif" font-size="14.00">HoraPipe</text>
</g>
<!-- HoraPipe&#45;&gt;AppModule -->
<g id="edge12" class="edge">
<title>HoraPipe&#45;&gt;AppModule</title>
<path fill="none" stroke="black" d="M1386,-122.24C1386,-137.57 1386,-157 1386,-157 1386,-157 1619.25,-157 1619.25,-157"/>
<polygon fill="black" stroke="black" points="1619.25,-160.5 1629.25,-157 1619.25,-153.5 1619.25,-160.5"/>
</g>
<!-- InicioComponent -->
<g id="node13" class="node">
<title>InicioComponent</title>
<polygon fill="#ffffb3" stroke="black" points="1333.99,-122 1220.01,-122 1220.01,-86 1333.99,-86 1333.99,-122"/>
<text text-anchor="middle" x="1277" y="-99.8" font-family="Times,serif" font-size="14.00">InicioComponent</text>
</g>
<!-- InicioComponent&#45;&gt;AppModule -->
<g id="edge13" class="edge">
<title>InicioComponent&#45;&gt;AppModule</title>
<path fill="none" stroke="black" d="M1277,-122.03C1277,-138.4 1277,-160 1277,-160 1277,-160 1619.21,-160 1619.21,-160"/>
<polygon fill="black" stroke="black" points="1619.21,-163.5 1629.21,-160 1619.21,-156.5 1619.21,-163.5"/>
</g>
<!-- ListaCitasComponent -->
<g id="node14" class="node">
<title>ListaCitasComponent</title>
<polygon fill="#ffffb3" stroke="black" points="1202.1,-122 1063.9,-122 1063.9,-86 1202.1,-86 1202.1,-122"/>
<text text-anchor="middle" x="1133" y="-99.8" font-family="Times,serif" font-size="14.00">ListaCitasComponent</text>
</g>
<!-- ListaCitasComponent&#45;&gt;AppModule -->
<g id="edge14" class="edge">
<title>ListaCitasComponent&#45;&gt;AppModule</title>
<path fill="none" stroke="black" d="M1133,-122.02C1133,-139.37 1133,-163 1133,-163 1133,-163 1619.23,-163 1619.23,-163"/>
<polygon fill="black" stroke="black" points="1619.23,-166.5 1629.23,-163 1619.23,-159.5 1619.23,-166.5"/>
</g>
<!-- ListaFavoritosComponent -->
<g id="node15" class="node">
<title>ListaFavoritosComponent</title>
<polygon fill="#ffffb3" stroke="black" points="1046.21,-122 883.79,-122 883.79,-86 1046.21,-86 1046.21,-122"/>
<text text-anchor="middle" x="965" y="-99.8" font-family="Times,serif" font-size="14.00">ListaFavoritosComponent</text>
</g>
<!-- ListaFavoritosComponent&#45;&gt;AppModule -->
<g id="edge15" class="edge">
<title>ListaFavoritosComponent&#45;&gt;AppModule</title>
<path fill="none" stroke="black" d="M965,-122.27C965,-140.56 965,-166 965,-166 965,-166 1619.21,-166 1619.21,-166"/>
<polygon fill="black" stroke="black" points="1619.21,-169.5 1629.21,-166 1619.21,-162.5 1619.21,-169.5"/>
</g>
<!-- ListaResenaComponent -->
<g id="node16" class="node">
<title>ListaResenaComponent</title>
<polygon fill="#ffffb3" stroke="black" points="865.75,-122 716.25,-122 716.25,-86 865.75,-86 865.75,-122"/>
<text text-anchor="middle" x="791" y="-99.8" font-family="Times,serif" font-size="14.00">ListaResenaComponent</text>
</g>
<!-- ListaResenaComponent&#45;&gt;AppModule -->
<g id="edge16" class="edge">
<title>ListaResenaComponent&#45;&gt;AppModule</title>
<path fill="none" stroke="black" d="M791,-122.11C791,-141.34 791,-169 791,-169 791,-169 1619.15,-169 1619.15,-169"/>
<polygon fill="black" stroke="black" points="1619.15,-172.5 1629.15,-169 1619.15,-165.5 1619.15,-172.5"/>
</g>
<!-- NavBarComponent -->
<g id="node17" class="node">
<title>NavBarComponent</title>
<polygon fill="#ffffb3" stroke="black" points="698.37,-122 573.63,-122 573.63,-86 698.37,-86 698.37,-122"/>
<text text-anchor="middle" x="636" y="-99.8" font-family="Times,serif" font-size="14.00">NavBarComponent</text>
</g>
<!-- NavBarComponent&#45;&gt;AppModule -->
<g id="edge17" class="edge">
<title>NavBarComponent&#45;&gt;AppModule</title>
<path fill="none" stroke="black" d="M636,-122.22C636,-142.37 636,-172 636,-172 636,-172 1619.14,-172 1619.14,-172"/>
<polygon fill="black" stroke="black" points="1619.14,-175.5 1629.14,-172 1619.14,-168.5 1619.14,-175.5"/>
</g>
<!-- PeluqueroComponent -->
<g id="node18" class="node">
<title>PeluqueroComponent</title>
<polygon fill="#ffffb3" stroke="black" points="556.1,-122 417.9,-122 417.9,-86 556.1,-86 556.1,-122"/>
<text text-anchor="middle" x="487" y="-99.8" font-family="Times,serif" font-size="14.00">PeluqueroComponent</text>
</g>
<!-- PeluqueroComponent&#45;&gt;AppModule -->
<g id="edge18" class="edge">
<title>PeluqueroComponent&#45;&gt;AppModule</title>
<path fill="none" stroke="black" d="M487,-122.28C487,-143.32 487,-175 487,-175 487,-175 1619.21,-175 1619.21,-175"/>
<polygon fill="black" stroke="black" points="1619.21,-178.5 1629.21,-175 1619.21,-171.5 1619.21,-178.5"/>
</g>
<!-- PipeFavPipe -->
<g id="node19" class="node">
<title>PipeFavPipe</title>
<polygon fill="#ffffb3" stroke="black" points="400.27,-122 313.73,-122 313.73,-86 400.27,-86 400.27,-122"/>
<text text-anchor="middle" x="357" y="-99.8" font-family="Times,serif" font-size="14.00">PipeFavPipe</text>
</g>
<!-- PipeFavPipe&#45;&gt;AppModule -->
<g id="edge19" class="edge">
<title>PipeFavPipe&#45;&gt;AppModule</title>
<path fill="none" stroke="black" d="M357,-122.29C357,-144.21 357,-178 357,-178 357,-178 1619.14,-178 1619.14,-178"/>
<polygon fill="black" stroke="black" points="1619.14,-181.5 1629.14,-178 1619.14,-174.5 1619.14,-181.5"/>
</g>
<!-- PrincipalComponent -->
<g id="node20" class="node">
<title>PrincipalComponent</title>
<polygon fill="#ffffb3" stroke="black" points="295.88,-122 164.12,-122 164.12,-86 295.88,-86 295.88,-122"/>
<text text-anchor="middle" x="230" y="-99.8" font-family="Times,serif" font-size="14.00">PrincipalComponent</text>
</g>
<!-- PrincipalComponent&#45;&gt;AppModule -->
<g id="edge20" class="edge">
<title>PrincipalComponent&#45;&gt;AppModule</title>
<path fill="none" stroke="black" d="M230,-122.25C230,-145.02 230,-181 230,-181 230,-181 1619.04,-181 1619.04,-181"/>
<polygon fill="black" stroke="black" points="1619.04,-184.5 1629.04,-181 1619.04,-177.5 1619.04,-184.5"/>
</g>
<!-- ResenaComponent -->
<g id="node21" class="node">
<title>ResenaComponent</title>
<polygon fill="#ffffb3" stroke="black" points="145.76,-122 24.24,-122 24.24,-86 145.76,-86 145.76,-122"/>
<text text-anchor="middle" x="85" y="-99.8" font-family="Times,serif" font-size="14.00">ResenaComponent</text>
</g>
<!-- ResenaComponent&#45;&gt;AppModule -->
<g id="edge21" class="edge">
<title>ResenaComponent&#45;&gt;AppModule</title>
<path fill="none" stroke="black" d="M85,-122.15C85,-145.76 85,-184 85,-184 85,-184 1618.99,-184 1618.99,-184"/>
<polygon fill="black" stroke="black" points="1618.99,-187.5 1628.99,-184 1618.99,-180.5 1618.99,-187.5"/>
</g>
<!-- AppComponent  -->
<g id="node24" class="node">
<title>AppComponent </title>
<polygon fill="#80b1d3" stroke="black" points="1725.44,-252 1616.56,-252 1616.56,-216 1725.44,-216 1725.44,-252"/>
<text text-anchor="middle" x="1671" y="-229.8" font-family="Times,serif" font-size="14.00">AppComponent </text>
</g>
<!-- AppModule&#45;&gt;AppComponent  -->
<g id="edge23" class="edge">
<title>AppModule&#45;&gt;AppComponent </title>
<path fill="none" stroke="black" stroke-dasharray="1,5" d="M1671,-187.11C1671,-187.11 1671,-205.99 1671,-205.99"/>
<polygon fill="black" stroke="black" points="1667.5,-205.99 1671,-215.99 1674.5,-205.99 1667.5,-205.99"/>
</g>
<!-- AppRoutingModule -->
<g id="node23" class="node">
<title>AppRoutingModule</title>
<polygon fill="#8dd3c7" stroke="black" points="3486.27,-122 3483.27,-126 3462.27,-126 3459.27,-122 3357.73,-122 3357.73,-86 3486.27,-86 3486.27,-122"/>
<text text-anchor="middle" x="3422" y="-99.8" font-family="Times,serif" font-size="14.00">AppRoutingModule</text>
</g>
<!-- AppRoutingModule&#45;&gt;AppModule -->
<g id="edge22" class="edge">
<title>AppRoutingModule&#45;&gt;AppModule</title>
<path fill="none" stroke="black" d="M3422,-122.25C3422,-145.02 3422,-181 3422,-181 3422,-181 1722.99,-181 1722.99,-181"/>
<polygon fill="black" stroke="black" points="1722.99,-177.5 1712.99,-181 1722.99,-184.5 1722.99,-177.5"/>
</g>
<!-- HttpInterceptorService -->
<g id="node25" class="node">
<title>HttpInterceptorService</title>
<ellipse fill="#fdb462" stroke="black" cx="3610" cy="-104" rx="99.53" ry="18"/>
<text text-anchor="middle" x="3610" y="-99.8" font-family="Times,serif" font-size="14.00">HttpInterceptorService</text>
</g>
<!-- HttpInterceptorService&#45;&gt;AppModule -->
<g id="edge24" class="edge">
<title>HttpInterceptorService&#45;&gt;AppModule</title>
<path fill="none" stroke="black" d="M3610,-122.15C3610,-145.76 3610,-184 3610,-184 3610,-184 1722.85,-184 1722.85,-184"/>
<polygon fill="black" stroke="black" points="1722.85,-180.5 1712.85,-184 1722.85,-187.5 1722.85,-180.5"/>
</g>
</g>
</svg>
